<?xml version="1.0" encoding="UTF-8"?>
<svg id="Layer_1" data-name="Layer 1" xmlns="http://www.w3.org/2000/svg" xmlns:xlink="http://www.w3.org/1999/xlink" viewBox="0 0 1366 768">
  <defs>
    <style>
      .cls-1 {
        fill: #fff;
      }

      .cls-2, .cls-3 {
        opacity: .4;
      }

      .cls-4 {
        fill: none;
      }

      .cls-5, .cls-6, .cls-3 {
        fill: #ffe29b;
      }

      .cls-5, .cls-7 {
        opacity: .6;
      }

      .cls-8 {
        opacity: .8;
      }

      .cls-9 {
        fill: #fdc36f;
        opacity: .7;
      }

      .cls-6 {
        opacity: .5;
      }

      .cls-10 {
        fill: #ffd060;
      }

      .cls-11 {
        fill: #58270e;
      }

      .cls-12 {
        fill: #f8a01b;
      }

      .cls-13 {
        fill: #bc4d18;
      }

      .cls-14 {
        fill: #f89a25;
      }

      .cls-7 {
        fill: #fbae22;
      }

      .cls-15 {
        clip-path: url(#clippath);
      }
    </style>
    <clipPath id="clippath">
      <polygon class="cls-4" points="615.4 497.03 696.22 497.03 687.83 424.11 636.98 424.11 615.4 497.03"/>
    </clipPath>
  </defs>
  <g>
    <polygon class="cls-12" points="588.09 424.11 109.34 424.11 109.34 450.98 577.43 450.98 588.09 424.11"/>
    <polygon class="cls-12" points="629.03 450.98 690.92 450.98 687.83 424.11 636.98 424.11 629.03 450.98"/>
    <path class="cls-12" d="M760.42,424.11c-3.38,7.77-7.79,14.46-13.3,19.94-2.62,2.61-5.49,4.88-8.54,6.92h518.34v-26.87h-496.5Z"/>
  </g>
  <g>
    <path class="cls-11" d="M108.79,284.43h41.13v45.66h31.7v-45.66h40.94v128.86h-40.94v-47.92h-31.7v47.92h-41.13v-128.86Z"/>
    <path class="cls-11" d="M234.43,366.31c0-39.05,27.54-48.86,51.69-48.86s51.7,10.38,51.7,48.86-27.55,48.86-51.7,48.86-51.69-9.81-51.69-48.86ZM295.56,366.31c0-20-6.6-20-9.43-20s-9.24,0-9.24,20,6.41,20,9.24,20,9.43,0,9.43-20Z"/>
    <path class="cls-11" d="M348.38,354.62c0-13.02,0-25.09-.57-34.9l34.53-.94,2.83,10.19h.94c5.66-5.1,14.34-11.51,28.11-11.51,28.11,0,33.02,20.19,33.02,41.13v54.71h-40.94v-52.45c0-8.11-1.32-11.13-6.23-11.13-3.4,0-8.3,2.64-10.75,6.79v56.79h-40.94v-58.68Z"/>
    <path class="cls-11" d="M457.99,367.82c0-23.96,14.15-50.37,51.13-50.37s48.3,28.3,41.51,60.37h-52.83c.19,6.23,6.98,8.3,15.66,8.3,10,0,22.26-2.64,30.19-4.53l3.4,27.92c-12.45,4.53-26.98,5.66-37.36,5.66-32.45,0-51.69-15.66-51.69-47.36ZM514.97,354.43v-1.7c0-2.07-.75-8.3-7.74-8.3-4.91,0-9.43,4.72-9.43,10h17.17Z"/>
    <path class="cls-11" d="M599.48,412.35h-10.38l-35.66-92.64h46.04l10.57,57.17h.75l5.85-57.17h44.71l-40.94,138.29h-39.05l18.11-45.66Z"/>
    <path class="cls-11" d="M694.18,424.61c25.66.75,26.79-19.62,26.79-44.34v-95.84h41.13v95.47c0,53.96-26.41,76.03-64.34,75.85l-3.58-31.13Z"/>
    <path class="cls-11" d="M776.25,374.61v-54.9h40.94v51.89c0,8.11,1.51,11.89,8.11,11.89,4.34,0,8.68-3.4,8.68-6.23v-57.55h40.75v56.6c0,14.53.19,26.98.94,36.98h-28.11l-9.25-10.57h-.38c-5.66,7.73-13.58,12.45-28.87,12.45-26.98,0-32.83-18.49-32.83-40.56Z"/>
    <path class="cls-11" d="M888.5,354.62c0-13.02,0-25.09-.57-34.9l34.53-.94,2.83,10.19h.94c5.66-5.1,14.34-11.51,28.11-11.51,28.11,0,33.02,20.19,33.02,41.13v54.71h-40.94v-52.45c0-8.11-1.32-11.13-6.23-11.13-3.4,0-8.3,2.64-10.76,6.79v56.79h-40.94v-58.68Z"/>
    <path class="cls-11" d="M1000.94,276.13l40.94-.75v77.35l5.1-6.79,10.94-26.22h48.86l-31.51,38.68,33.96,54.9h-50.94l-12.45-33.21-3.96,5.85v27.36h-40.94v-137.16Z"/>
    <path class="cls-11" d="M1111.11,319.71l40.94-.94v94.52h-40.94v-93.58Z"/>
    <path class="cls-11" d="M1162.8,367.82c0-23.96,14.15-50.37,51.13-50.37s48.3,28.3,41.51,60.37h-52.83c.19,6.23,6.98,8.3,15.66,8.3,10,0,22.26-2.64,30.19-4.53l3.4,27.92c-12.45,4.53-26.98,5.66-37.36,5.66-32.45,0-51.7-15.66-51.7-47.36ZM1219.78,354.43v-1.7c0-2.07-.76-8.3-7.74-8.3-4.91,0-9.43,4.72-9.43,10h17.17Z"/>
  </g>
  <g>
    <g>
      <path class="cls-12" d="M1154.04,262.73c-.31,0-42.38-.06-42.69-.06-3.2,0-5.8,2.59-5.8,5.78,0,3.2,2.59,5.8,5.78,5.8.31,0,42.38.06,42.69.06,3.2,0,5.8-2.59,5.8-5.78,0-3.2-2.59-5.8-5.78-5.8Z"/>
      <path class="cls-11" d="M1158.6,273.1c-1.22,1.22-2.85,1.89-4.58,1.89h-.76c-5.7,0-41.65-.06-41.93-.06-3.57,0-6.46-2.91-6.46-6.48,0-1.73.68-3.35,1.9-4.57s2.85-1.89,4.58-1.89c.4,0,42.3.06,42.69.06,1.73,0,3.35.68,4.57,1.9s1.89,2.85,1.89,4.57c0,1.73-.68,3.35-1.9,4.57ZM1107.72,264.84c-.97.97-1.5,2.25-1.5,3.62,0,2.82,2.29,5.12,5.11,5.13.29,0,36.23.05,41.94.06h.76c1.37,0,2.65-.53,3.62-1.49s1.5-2.25,1.5-3.62c0-1.37-.53-2.65-1.49-3.62-.97-.97-2.25-1.5-3.62-1.5-.39,0-42.29-.06-42.69-.06-1.37,0-2.65.53-3.62,1.49Z"/>
    </g>
    <g>
      <path class="cls-12" d="M1149.23,251.14c-.31,0-32.75-.05-33.06-.05-3.2,0-5.8,2.59-5.8,5.78,0,3.2,2.58,5.8,5.78,5.8.31,0,32.74.05,33.06.05,3.2,0,5.8-2.59,5.8-5.78,0-3.2-2.59-5.8-5.78-5.8Z"/>
      <path class="cls-11" d="M1153.79,261.51c-1.22,1.22-2.85,1.89-4.58,1.89-.31,0-32.75-.05-33.06-.05-1.73,0-3.35-.68-4.57-1.9-1.22-1.22-1.89-2.85-1.89-4.58,0-1.73.68-3.35,1.9-4.57s2.85-1.89,4.58-1.89c.31,0,32.74.05,33.06.05,3.57,0,6.46,2.91,6.46,6.48,0,1.73-.68,3.35-1.9,4.57ZM1112.56,253.26c-.97.97-1.5,2.25-1.5,3.62,0,1.37.53,2.65,1.49,3.62.97.97,2.25,1.5,3.62,1.5.31,0,32.75.05,33.06.05,1.37,0,2.65-.53,3.62-1.49s1.5-2.25,1.5-3.62c0-2.82-2.29-5.12-5.11-5.12-.31,0-32.75-.05-33.06-.05-1.37,0-2.65.53-3.62,1.49Z"/>
    </g>
    <g>
      <path class="cls-12" d="M1159.81,274.33c-.31,0-53.97-.08-54.28-.08-3.2,0-5.8,2.59-5.8,5.78,0,3.2,2.59,5.8,5.78,5.8.31,0,53.97.08,54.28.08,3.2,0,5.8-2.59,5.8-5.78,0-3.2-2.59-5.8-5.78-5.8Z"/>
      <path class="cls-11" d="M1164.37,284.7c-1.22,1.22-2.85,1.89-4.58,1.89-.16,0-13.65-.02-27.14-.04-13.49-.02-26.98-.04-27.14-.04-3.57,0-6.46-2.91-6.46-6.48,0-1.73.68-3.35,1.9-4.57s2.85-1.89,4.58-1.89c.31,0,53.97.07,54.28.08,3.56,0,6.46,2.91,6.46,6.48,0,1.73-.68,3.35-1.9,4.57ZM1101.91,276.42c-.97.97-1.5,2.25-1.5,3.62,0,2.82,2.29,5.12,5.11,5.12.15,0,13.65.02,27.14.04,13.49.02,26.98.04,27.14.04,1.37,0,2.65-.53,3.62-1.49.97-.97,1.5-2.25,1.5-3.62,0-2.82-2.29-5.12-5.11-5.12-.31,0-53.97-.08-54.28-.08-1.37,0-2.65.53-3.62,1.49Z"/>
    </g>
    <g>
      <path class="cls-12" d="M1111.29,297.43c.31,0,42.38.06,42.69.06,3.2,0,5.8-2.59,5.8-5.78,0-3.2-2.59-5.8-5.78-5.8-.31,0-42.38-.06-42.69-.06-3.2,0-5.8,2.59-5.8,5.78,0,3.2,2.59,5.8,5.78,5.8Z"/>
      <path class="cls-11" d="M1158.56,296.27c-1.22,1.22-2.85,1.89-4.58,1.89-.31,0-42.38-.06-42.69-.06-3.57,0-6.46-2.91-6.46-6.48,0-1.73.68-3.35,1.9-4.57s2.85-1.89,4.58-1.89c.16,0,10.75.02,21.35.03,10.6.01,21.19.03,21.35.03,3.56,0,6.46,2.91,6.46,6.48,0,1.73-.68,3.35-1.9,4.57ZM1107.69,288.01c-.97.97-1.5,2.25-1.5,3.62,0,2.82,2.29,5.12,5.11,5.13.31,0,42.38.06,42.69.06,1.37,0,2.65-.53,3.62-1.49.97-.97,1.5-2.25,1.5-3.62,0-2.82-2.29-5.12-5.11-5.12-.16,0-10.75-.02-21.35-.03-10.6-.01-21.19-.03-21.35-.03-1.37,0-2.65.53-3.62,1.49Z"/>
    </g>
    <g>
      <path class="cls-12" d="M1116.1,309.02c.31,0,32.74.05,33.06.05,3.2,0,5.8-2.59,5.8-5.78,0-3.2-2.59-5.8-5.78-5.8-.31,0-32.74-.05-33.06-.05-3.2,0-5.8,2.59-5.8,5.78,0,3.2,2.59,5.8,5.78,5.8Z"/>
      <path class="cls-11" d="M1153.73,307.85h0c-1.22,1.22-2.85,1.89-4.57,1.89l-33.06-.05c-1.73,0-3.35-.68-4.57-1.9s-1.89-2.85-1.89-4.58c0-1.73.68-3.35,1.9-4.57s2.85-1.89,4.58-1.89c.28,0,27.27.04,32.27.04h.79c3.57,0,6.46,2.91,6.46,6.48,0,1.73-.68,3.35-1.9,4.57ZM1112.49,299.6c-.97.97-1.5,2.25-1.5,3.62,0,1.37.53,2.65,1.49,3.62.97.97,2.25,1.5,3.62,1.5l33.06.05c1.37,0,2.65-.53,3.62-1.49s1.5-2.25,1.5-3.62c0-2.82-2.29-5.12-5.11-5.12h-.79c-5,0-31.98-.05-32.27-.05-1.37,0-2.65.53-3.62,1.49Z"/>
    </g>
    <path class="cls-10" d="M1129.56,252.29c-6.48,0-12.96-.02-13.08-.02-2.53,0-4.59,2.01-4.59,4.49,0,2.48,2.05,4.5,4.58,4.51.12,0,6.6,0,13.08.02v-9Z"/>
    <path class="cls-10" d="M1129.59,298.81c-6.48,0-12.96-.02-13.08-.02-2.53,0-4.59,2.01-4.59,4.49,0,2.49,2.05,4.5,4.58,4.51.12,0,6.6.01,13.08.02v-9Z"/>
    <path class="cls-10" d="M1129.23,263.98c-8.51-.01-17.02-.02-17.14-.02-2.57,0-4.65,2.08-4.66,4.65,0,2.57,2.08,4.65,4.65,4.66.13,0,8.63.01,17.14.02v-9.3Z"/>
    <path class="cls-10" d="M1129.45,287.02c-8.51-.01-17.02-.02-17.14-.02-2.57,0-4.65,2.08-4.66,4.65,0,2.57,2.08,4.65,4.65,4.66.13,0,8.63.01,17.14.02v-9.3Z"/>
    <path class="cls-10" d="M1129.57,275.42c-10.84-.01-21.67-.03-21.8-.03-2.57,0-4.65,2.08-4.66,4.64,0,2.57,2.08,4.65,4.65,4.66.12,0,10.96.02,21.79.03v-9.3Z"/>
  </g>
  <g>
    <path class="cls-14" d="M1255.55,428.49h-495.31s0,12.53,0,12.53c0,0,12.91-7.48,34.21-3.38,21.3,4.09,39.05,24.4,41.72,44.87,2.66,20.47-8.43,24.73.44,30.41,8.88,5.68,23.52,1.18,22.63-8.04-.89-9.22-1.33-28.24,6.66-39.54,7.99-11.3,26.18-19.48,36.84-19.53,10.65-.05,23.96,11.07,25.74,23.84,1.78,12.77,7.54,15.84,13.31,15.61,5.77-.24,13.76-6.38,13.31-10.28-.44-3.91,1.33-14.07,12.43-13.84,11.09.24,20.41,2.84,26.63-2.37,6.21-5.2,5.73-10.39,13.74-10.16,8.01.23,22.17,2.59,26.18,11.82,4.01,9.22,1.76,15.2,0,23.21-1.76,8.01,2.24,12.61,12.44,12.56,10.21-.06,12.19-4.24,12.08-12.56-.1-8.31-3.21-19.6,7-26.14,10.21-6.53,31.65-13.54,52.44-13.23,20.79.31,42.09,15.69,48.3,30.71,6.21,15.01-7.1,31.8,8.88,34.41,15.98,2.6,23.52-3.91,20.41-13.19-3.11-9.28,2.66-32.63,8.43-38.69,5.77-6.06,23.52-18.32,35.06-17.87,11.54.46,16.42,0,16.42,0v-11.13Z"/>
    <path class="cls-7" d="M1255.55,433.46l-1.33.51s-26.92-2.22-39.35,5.18c-12.43,7.39-14.2,21.42-26.04,20.79-11.83-.63-18.64-8.75-46.75-18.09-28.11-9.34-51.69-9-74.22.92-22.53,9.92-19.26,6.61-37.76,1.57-18.5-5.04-43.65-4.28-61.69.78-18.05,5.06-26.63,6.32-33.14,1.43-6.51-4.89-22.78-13.61-48.52-8.3-25.74,5.31-22.83,20.92-35.09,15.56-12.25-5.36-34.44-28.67-85.33-21.43-2.16.31-4.19.57-6.1.79v-4.66h495.31v4.97Z"/>
    <g class="cls-2">
      <path class="cls-13" d="M846.27,513.23c15.72-.79,8.13-33.38,13.65-49.35,4.67-13.52,24.5-21.21,43.05-18.08-.07,0-.15,0-.22,0-10.65.05-28.85,8.23-36.84,19.53-7.99,11.3-7.54,30.32-6.66,39.54.89,9.22-13.76,13.72-22.63,8.04-3.8-2.43-3.94-4.6-3.07-7.89-.36,1.53-1.38,8.91,12.72,8.21Z"/>
      <path class="cls-13" d="M912.81,448.6c20.73,8.52,20.38,33.26,28.98,33.91,8.6.65,7.08-6.89,9.14-17.18,2.07-10.29,18.67-6.81,32.87-7.84,14.2-1.04,5.62-10.95,21.89-10.95,16.27,0,24.41,8.72,24.41,8.72h0c-6-5-15.98-6.48-22.21-6.66-8.01-.23-7.53,4.96-13.74,10.16-6.21,5.2-15.53,2.6-26.63,2.37-11.1-.24-12.87,9.93-12.43,13.84.44,3.9-7.54,10.05-13.31,10.28-5.77.24-11.54-2.84-13.31-15.61-1.23-8.88-8.05-16.96-15.67-21.04h0Z"/>
      <path class="cls-13" d="M1065.61,457.49c-10.21,6.53-7.1,17.83-7,26.14.1,8.31-1.88,12.5-12.08,12.56-5.3.03-8.92-1.2-10.93-3.51,1.8.9,4.01,1.5,6.69,1.69,22.68,1.63,4.54-16.61,8.68-31.27,4.14-14.66,27.81-26.49,58.96-23.47,31.15,3.01,39.05,15.36,39.05,15.37-8.94-6.24-20-10.57-30.92-10.73-20.79-.31-42.23,6.7-52.44,13.23Z"/>
      <path class="cls-13" d="M1239.13,439.62c-11.54-.45-29.29,11.81-35.06,17.87-5.77,6.06-11.54,29.41-8.43,38.69,3.11,9.28-4.44,15.79-20.41,13.19-9.28-1.51-8.68-7.81-7.76-15.78,1.71,13.94,20.95,15.54,24.03,10.97,3.08-4.58-3.85-36.73,0-51.99,3.85-15.25,33.43-17.23,45.27-17.06,11.83.17,18.79-2.83,18.79-2.83v6.93s-4.88.46-16.42,0Z"/>
    </g>
    <g class="cls-8">
      <path class="cls-9" d="M1122.39,439.74c11.72,2.43,29.76,8.37,39.52,16.57,9.76,8.2,18.64,6.78,20.12,12.14,1.48,5.36-1.18,21.71,0,27.73,1.18,6.01,4.18,8.85.46,9.17-3.72.32-10.52-.95-7.86-11.67,2.66-10.72-7.46-26.86-15.98-35.47-8.52-8.61-27.77-14.15-44.41-16.22-16.64-2.06-9.42-5.88,8.14-2.24Z"/>
      <path class="cls-9" d="M1078.28,443.03s-26.13,3.51-30.57,16.91c-4.44,13.4-6.21,29.33-2.37,30.98,3.85,1.65,6.16-.55,6.93,1.18.76,1.73-11.24,2.92-12.93-2.17-1.69-5.08,3.76-24.32,0-31.1-3.76-6.78-9.09-8.99-19.44-11.98-10.36-3,9.17,1.83,24.26-1.05,15.09-2.89,38.06-4.38,34.12-2.77Z"/>
      <path class="cls-9" d="M998.01,448.6s1.78,5.35-9.76,7.24c-11.54,1.89-22.78-2.05-32.25,3.63-9.47,5.68-4.14,17.19-9.76,19.87-5.62,2.68-10.06-7.24-8.28-15.37,1.78-8.12-24.56-17.15-20.41-18.7,4.14-1.56,12.72,11.05,32.25,6.95,19.53-4.1,18.34,2.68,32.55-.47,14.2-3.15,15.92-5.46,15.68-3.15Z"/>
      <path class="cls-9" d="M793.86,433.3s31.95,3.94,44.38,20.18c12.43,16.24,7.1,37.5,5.62,45.32-1.48,7.81-1.18,12.86-1.18,12.86,0,0-7.1-.7-4.73-9.49,2.37-8.79,1.19-24.97-4.14-41.11-5.33-16.14-29.44-22.64-47.04-26.22-17.6-3.58,7.1-1.53,7.1-1.53Z"/>
      <path class="cls-9" d="M889.72,431.68s-91.72-2.09-86.1,0c5.62,2.09,117.75,3.9,86.1,0Z"/>
      <path class="cls-9" d="M1087.51,431.49s-44.24-1.82-85.96-1.14c-41.72.68-44.97,2.95-19.23,2.87,25.74-.08,119.25.49,105.19-1.73Z"/>
      <path class="cls-9" d="M895.34,441.85s-29.44,3.61-35.43,20.6c0,0,12.43-11.85,27.96-15.76,15.53-3.9,7.47-4.85,7.47-4.85Z"/>
      <path class="cls-9" d="M856.36,466.68s-4.22,7.92-4.66,15.84c-.44,7.92,5.1-6.74,4.66-15.84Z"/>
    </g>
    <path class="cls-3" d="M1042.68,465.02s2.58,15.43,6.52,18.9c3.94,3.47,5.58,8.66,1.05,9.42-4.53.76-13.78,1.89-13.93-6.83-.15-8.72,6.37-21.48,6.37-21.48Z"/>
    <path class="cls-1" d="M939.33,469.43s-1.34,7.99,4.32,8.66c5.65.67,3.3-3.01,3.3-3.01,0,0-6.99,3.05-7.61-5.65Z"/>
    <path class="cls-1" d="M1051.4,489.33s-3.29,1.75-6.04-.84c-2.74-2.59-.55-6.85-.55-6.85,0,0,2.51,7.73,6.58,7.69Z"/>
    <path class="cls-1" d="M1180.35,478.28s3.37-10.17-3.97-13.04c-7.33-2.87-9.4-4.19-9.4-4.19,0,0,.87,3.43,6.04,5.14,5.16,1.71,7.33,12.08,7.33,12.08Z"/>
    <path class="cls-3" d="M1178.06,477.57s3.92,8.37,9.08,15.5c5.16,7.14,4.63,11.16-.62,12.32-5.25,1.16-15.74.49-14.32-11.54,1.42-12.03,5.85-16.28,5.85-16.28Z"/>
    <path class="cls-1" d="M1175.12,494.73s-2.82,5.12,1.14,7.74c3.97,2.62,7.53,1.9,7.53,1.9,0,0-8.61-4.19-8.68-9.64Z"/>
    <path class="cls-1" d="M1039.42,454.35s-3.24-4.61-11.98-6.67c0,0,12.31.77,11.98,6.67Z"/>
    <path class="cls-1" d="M991.99,452.99s-1.11,1.89-8.64,2.36c-7.54.47-9.53-1-9.53-1,0,0,15.18.89,18.18-1.36Z"/>
    <path class="cls-5" d="M843.05,478.4s1.52,15.85,6.54,21.41c5.02,5.55,5.51,12.26-3.98,12.52-9.49.26-10.99-4.59-9.85-9.54,1.14-4.95,7.29-24.38,7.29-24.38Z"/>
    <path class="cls-1" d="M839.83,498.6s-3.32,6.82-.76,9.89c2.56,3.08,10.61,2.12,10.61,2.12,0,0-10.8-3.74-9.85-12.02Z"/>
    <path class="cls-3" d="M1216.3,433.73s-13.25-1.07-22.51,8c-9.25,9.06-14.75,12.18-23.76,5.96-9-6.22-38.01-14.67-60.27-14.99-22.26-.33-7.25-1.09,25.76-2.16,33.01-1.07,100.78-1.33,80.77,3.2Z"/>
    <path class="cls-3" d="M1009.5,437s-15.8-3.36-38.03,2.15c-22.23,5.51-22.06,8.29-32.27,2.7-10.21-5.59-22.97-8.55-31.47-9.14-8.5-.58,0-2.01,18.5-1.96,18.51.05,25.91,5.38,39.71,5.38,13.8,0,40.81-3.46,43.56.88Z"/>
    <path class="cls-6" d="M878.67,437s-15.55,1.33-18.76,7.22c-3.21,5.89-9.96,5.3-18.71,0-8.75-5.3-18-8.1-10-8.1,8,0,47.47.88,47.47.88Z"/>
    <ellipse class="cls-1" cx="1024.36" cy="431.31" rx="42.55" ry=".41"/>
    <ellipse class="cls-1" cx="847.26" cy="431.83" rx="34.84" ry=".53"/>
    <path class="cls-1" d="M1128.85,431.37c0,.26,17.34.47,38.72.47,21.39,0,38.72-.21,38.72-.47,0-.26-17.34-.47-38.72-.47-21.39,0-38.72.21-38.72.47Z"/>
  </g>
  <g>
    <path class="cls-14" d="M109.34,428.49h466.78v12.84s-12.16-7.66-32.24-3.47c-20.08,4.19-36.8,25-39.31,45.98-2.51,20.98,7.95,25.34-.42,31.16-8.36,5.82-22.17,1.21-21.33-8.24.84-9.45,1.25-28.94-6.27-40.53-7.53-11.58-24.68-19.96-34.71-20.01-10.04-.05-22.58,11.34-24.26,24.43-1.67,13.09-7.11,16.24-12.55,16-5.44-.24-12.96-6.54-12.55-10.54.42-4-1.25-14.42-11.71-14.18-10.46.24-19.24,2.91-25.09-2.42-5.86-5.33-5.4-10.65-12.95-10.41-7.54.23-20.89,2.66-24.68,12.11-3.78,9.45-1.66,15.58,0,23.79,1.66,8.2-2.11,12.93-11.73,12.87-9.62-.06-11.48-4.35-11.39-12.87.1-8.52,3.02-20.09-6.6-26.79-9.62-6.69-29.83-13.88-49.42-13.56-19.59.32-39.67,16.08-45.52,31.47-5.86,15.39,6.69,32.59-8.36,35.26-15.06,2.67-22.17-4-19.24-13.51,2.93-9.51-2.51-33.44-7.95-39.65-5.44-6.21-22.17-18.78-33.04-18.31-10.87.47-15.47,0-15.47,0v-11.41Z"/>
    <path class="cls-7" d="M109.34,433.58l1.25.53s25.37-2.27,37.08,5.3c11.71,7.57,13.38,21.95,24.54,21.31,11.15-.65,17.57-8.97,44.05-18.54,26.49-9.57,48.71-9.23,69.94.94,21.23,10.17,18.15,6.77,35.59,1.6,17.43-5.17,41.13-4.39,58.14.8,17.01,5.18,25.09,6.48,31.23,1.47,6.13-5.01,21.47-13.95,45.73-8.51,24.26,5.44,21.52,21.44,33.06,15.94,11.55-5.49,32.46-29.38,80.42-21.96,2.04.32,3.95.58,5.75.81v-4.78H109.34v5.1Z"/>
    <g class="cls-2">
      <path class="cls-13" d="M495.06,515.33c-14.81-.81-7.66-34.21-12.86-50.57-4.4-13.85-23.09-21.73-40.57-18.53.07,0,.14,0,.21,0,10.04.05,27.19,8.43,34.71,20.01,7.53,11.58,7.11,31.07,6.27,40.53-.84,9.45,12.96,14.06,21.33,8.24,3.58-2.49,3.71-4.71,2.89-8.09.34,1.57,1.3,9.13-11.99,8.41Z"/>
      <path class="cls-13" d="M432.35,449.1c-19.53,8.73-19.21,34.09-27.31,34.75-8.1.66-6.67-7.06-8.62-17.61-1.95-10.54-17.59-6.98-30.97-8.04-13.38-1.06-5.3-11.22-20.63-11.22s-23.01,8.93-23.01,8.93h0c5.65-5.13,15.06-6.64,20.93-6.82,7.54-.23,7.09,5.08,12.95,10.41,5.86,5.33,14.64,2.67,25.09,2.42,10.46-.24,12.13,10.18,11.71,14.18-.42,4,7.11,10.3,12.55,10.54,5.44.24,10.87-2.91,12.55-16,1.16-9.1,7.59-17.38,14.76-21.56h0Z"/>
      <path class="cls-13" d="M288.35,458.21c9.62,6.69,6.69,18.27,6.6,26.79-.1,8.52,1.77,12.81,11.39,12.87,4.99.03,8.41-1.23,10.3-3.6-1.7.92-3.77,1.54-6.31,1.73-21.38,1.67-4.27-17.02-8.18-32.05-3.9-15.03-26.21-27.14-55.56-24.06-29.35,3.09-36.8,15.75-36.8,15.75,8.43-6.4,18.85-10.83,29.14-11,19.59-.32,39.8,6.86,49.42,13.56Z"/>
      <path class="cls-13" d="M124.82,439.9c10.87-.47,27.6,12.1,33.04,18.31,5.44,6.21,10.87,30.14,7.95,39.65-2.93,9.51,4.18,16.18,19.24,13.51,8.75-1.55,8.18-8.01,7.31-16.17-1.61,14.29-19.74,15.93-22.65,11.24-2.9-4.69,3.62-37.65,0-53.28-3.62-15.63-31.51-17.65-42.66-17.48-11.15.17-17.71-2.9-17.71-2.9v7.11s4.6.47,15.47,0Z"/>
    </g>
    <g class="cls-8">
      <path class="cls-9" d="M234.84,440.02c-11.04,2.49-28.05,8.58-37.25,16.98-9.2,8.4-17.57,6.95-18.96,12.44-1.39,5.49,1.12,22.25,0,28.41-1.12,6.16-3.94,9.07-.43,9.39,3.5.32,9.91-.97,7.4-11.96-2.51-10.99,7.03-27.53,15.06-36.35,8.03-8.83,26.17-14.51,41.85-16.62,15.68-2.11,8.87-6.03-7.67-2.3Z"/>
      <path class="cls-9" d="M276.41,443.4s24.63,3.59,28.81,17.33c4.18,13.73,5.86,30.06,2.23,31.75-3.62,1.69-5.81-.57-6.53,1.21-.72,1.78,10.59,2.99,12.19-2.22,1.59-5.21-3.54-24.92,0-31.87,3.54-6.95,8.56-9.21,18.32-12.28,9.76-3.07-8.64,1.88-22.86-1.08-14.22-2.96-35.87-4.49-32.16-2.83Z"/>
      <path class="cls-9" d="M352.06,449.1s-1.67,5.49,9.2,7.42c10.87,1.94,21.47-2.1,30.39,3.72,8.92,5.82,3.9,17.61,9.2,20.36,5.3,2.75,9.48-7.42,7.81-15.75-1.67-8.32,23.14-17.57,19.24-19.17-3.9-1.6-11.99,11.33-30.39,7.13-18.4-4.2-17.29,2.75-30.67-.48-13.38-3.23-15-5.59-14.78-3.22Z"/>
      <path class="cls-9" d="M544.45,433.42s-30.11,4.04-41.82,20.68c-11.71,16.64-6.69,38.43-5.3,46.44,1.39,8.01,1.12,13.18,1.12,13.18,0,0,6.69-.72,4.46-9.73-2.23-9.01-1.12-25.59,3.9-42.13,5.02-16.54,27.74-23.2,44.33-26.87,16.59-3.67-6.69-1.57-6.69-1.57Z"/>
      <path class="cls-9" d="M454.11,431.76s86.43-2.14,81.14,0c-5.3,2.14-110.97,4-81.14,0Z"/>
      <path class="cls-9" d="M267.71,431.57s41.69-1.86,81.01-1.16c39.31.7,42.38,3.02,18.12,2.94-24.26-.08-112.38.51-99.13-1.78Z"/>
      <path class="cls-9" d="M448.81,442.18s27.74,3.69,33.39,21.11c0,0-11.71-12.15-26.35-16.15-14.64-4-7.04-4.97-7.04-4.97Z"/>
      <path class="cls-9" d="M485.55,467.63s3.97,8.12,4.39,16.24c.42,8.12-4.81-6.91-4.39-16.24Z"/>
    </g>
    <path class="cls-3" d="M309.96,465.93s-2.43,15.81-6.14,19.37c-3.71,3.56-5.26,8.87-.99,9.65,4.27.78,12.99,1.94,13.13-7,.14-8.94-6-22.02-6-22.02Z"/>
    <path class="cls-1" d="M407.36,470.45s1.26,8.19-4.07,8.87c-5.33.69-3.11-3.09-3.11-3.09,0,0,6.58,3.13,7.17-5.79Z"/>
    <path class="cls-1" d="M301.74,490.84s3.1,1.8,5.69-.86c2.59-2.65.52-7.02.52-7.02,0,0-2.36,7.92-6.21,7.88Z"/>
    <path class="cls-1" d="M180.22,479.51s-3.17-10.42,3.74-13.36c6.91-2.94,8.86-4.29,8.86-4.29,0,0-.82,3.51-5.69,5.27-4.87,1.76-6.91,12.38-6.91,12.38Z"/>
    <path class="cls-3" d="M182.38,478.78s-3.69,8.57-8.56,15.89c-4.87,7.32-4.37,11.43.58,12.63,4.95,1.19,14.83.5,13.49-11.83-1.34-12.33-5.51-16.68-5.51-16.68Z"/>
    <path class="cls-1" d="M185.14,496.38s2.66,5.25-1.08,7.93c-3.74,2.68-7.1,1.95-7.1,1.95,0,0,8.12-4.3,8.18-9.88Z"/>
    <path class="cls-1" d="M313.03,454.99s3.05-4.72,11.29-6.84c0,0-11.61.79-11.29,6.84Z"/>
    <path class="cls-1" d="M357.73,453.6s1.04,1.94,8.15,2.42c7.1.48,8.98-1.03,8.98-1.03,0,0-14.31.91-17.13-1.39Z"/>
    <path class="cls-5" d="M498.09,479.64s-1.43,16.25-6.16,21.94c-4.73,5.69-5.19,12.57,3.75,12.83,8.94.26,10.36-4.71,9.29-9.78-1.07-5.07-6.87-24.99-6.87-24.99Z"/>
    <path class="cls-1" d="M501.13,500.34s3.12,6.98.71,10.14c-2.41,3.16-10,2.17-10,2.17,0,0,10.18-3.83,9.29-12.31Z"/>
    <path class="cls-3" d="M146.34,433.86s12.49-1.09,21.21,8.19c8.72,9.29,13.9,12.48,22.39,6.1,8.48-6.38,35.82-15.03,56.8-15.36,20.98-.33,6.83-1.12-24.27-2.21-31.11-1.09-94.97-1.37-76.12,3.28Z"/>
    <path class="cls-3" d="M341.23,437.21s14.89-3.44,35.84,2.2c20.95,5.64,20.79,8.5,30.42,2.77,9.63-5.73,21.64-8.77,29.66-9.36,8.01-.6,0-2.06-17.44-2.01-17.44.05-24.42,5.51-37.43,5.51s-38.46-3.54-41.05.9Z"/>
    <path class="cls-6" d="M464.52,437.21s14.66,1.36,17.68,7.4c3.02,6.04,9.39,5.43,17.63,0,8.25-5.43,16.97-8.3,9.43-8.3s-44.74.9-44.74.9Z"/>
    <ellipse class="cls-1" cx="327.23" cy="431.38" rx="40.1" ry=".42"/>
    <ellipse class="cls-1" cx="494.12" cy="431.92" rx="32.83" ry=".54"/>
    <path class="cls-1" d="M228.75,431.44c0,.27-16.34.48-36.49.48s-36.49-.22-36.49-.48,16.34-.48,36.49-.48,36.49.22,36.49.48Z"/>
  </g>
  <g class="cls-15">
    <g>
      <path class="cls-14" d="M793.16,425.86h-318.59s0,12.53,0,12.53c0,0,8.3-7.48,22-3.38,13.7,4.09,25.12,24.4,26.83,44.87,1.71,20.47-5.42,24.73.29,30.41,5.71,5.68,15.13,1.18,14.56-8.04-.57-9.22-.86-28.24,4.28-39.54,5.14-11.3,16.84-19.48,23.69-19.53,6.85-.05,15.41,11.07,16.56,23.84,1.14,12.77,4.85,15.84,8.56,15.61,3.71-.24,8.85-6.38,8.56-10.28-.29-3.91.86-14.07,7.99-13.84,7.14.24,13.13,2.84,17.13-2.37,4-5.2,3.69-10.39,8.84-10.16,5.15.23,14.26,2.59,16.84,11.82,2.58,9.22,1.13,15.2,0,23.21-1.13,8.01,1.44,12.61,8,12.56,6.57-.06,7.84-4.24,7.77-12.56-.07-8.31-2.06-19.6,4.5-26.14,6.57-6.53,20.36-13.54,33.73-13.23,13.37.31,27.07,15.69,31.07,30.71,4,15.01-4.57,31.8,5.71,34.41,10.28,2.6,15.13-3.91,13.13-13.19-2-9.28,1.71-32.63,5.42-38.69,3.71-6.06,15.13-18.32,22.55-17.87,7.42.46,10.56,0,10.56,0v-11.13Z"/>
      <path class="cls-7" d="M793.16,430.83l-.86.51s-17.32-2.22-25.31,5.18c-7.99,7.39-9.13,21.42-16.75,20.79-7.61-.63-11.99-8.75-30.07-18.09-18.08-9.34-33.25-9-47.74.92-14.49,9.92-12.39,6.61-24.29,1.57-11.9-5.04-28.07-4.28-39.68.78-11.61,5.06-17.13,6.32-21.31,1.43-4.19-4.89-14.65-13.61-31.21-8.3-16.56,5.31-14.69,20.92-22.57,15.56-7.88-5.36-22.15-28.67-54.89-21.43-1.39.31-2.7.57-3.92.79v-4.66h318.59v4.97Z"/>
      <g class="cls-2">
        <path class="cls-13" d="M529.9,510.6c10.11-.79,5.23-33.38,8.78-49.35,3-13.52,15.76-21.21,27.69-18.08-.05,0-.09,0-.14,0-6.85.05-18.55,8.23-23.69,19.53-5.14,11.3-4.85,30.32-4.28,39.54.57,9.22-8.85,13.72-14.56,8.04-2.44-2.43-2.53-4.6-1.97-7.89-.23,1.53-.89,8.91,8.18,8.21Z"/>
        <path class="cls-13" d="M572.7,445.97c13.33,8.52,13.11,33.26,18.64,33.91,5.53.65,4.55-6.89,5.88-17.18,1.33-10.29,12.01-6.81,21.14-7.84,9.13-1.04,3.62-10.95,14.08-10.95s15.7,8.72,15.7,8.72h0c-3.86-5-10.28-6.48-14.29-6.66-5.15-.23-4.84,4.96-8.84,10.16-4,5.2-9.99,2.6-17.13,2.37-7.14-.24-8.28,9.93-7.99,13.84.29,3.9-4.85,10.05-8.56,10.28-3.71.24-7.42-2.84-8.56-15.61-.79-8.88-5.18-16.96-10.08-21.04h0Z"/>
        <path class="cls-13" d="M670.99,454.86c-6.57,6.53-4.57,17.83-4.5,26.14.07,8.31-1.21,12.5-7.77,12.56-3.41.03-5.74-1.2-7.03-3.51,1.16.9,2.58,1.5,4.31,1.69,14.59,1.63,2.92-16.61,5.58-31.27,2.66-14.66,17.89-26.49,37.92-23.47,20.03,3.01,25.12,15.36,25.12,15.37-5.75-6.24-12.87-10.57-19.89-10.73-13.37-.31-27.16,6.7-33.73,13.23Z"/>
        <path class="cls-13" d="M782.6,436.99c-7.42-.45-18.84,11.81-22.55,17.87-3.71,6.06-7.42,29.41-5.42,38.69,2,9.28-2.85,15.79-13.13,13.19-5.97-1.51-5.58-7.81-4.99-15.78,1.1,13.94,13.48,15.54,15.46,10.97,1.98-4.58-2.47-36.73,0-51.99,2.47-15.25,21.5-17.23,29.12-17.06,7.61.17,12.08-2.83,12.08-2.83v6.93s-3.14.46-10.56,0Z"/>
      </g>
      <g class="cls-8">
        <path class="cls-9" d="M707.51,437.11c7.54,2.43,19.14,8.37,25.42,16.57,6.28,8.2,11.99,6.78,12.94,12.14.95,5.36-.76,21.71,0,27.73.76,6.01,2.69,8.85.3,9.17-2.39.32-6.77-.95-5.05-11.67,1.71-10.72-4.8-26.86-10.28-35.47-5.48-8.61-17.86-14.15-28.57-16.22-10.7-2.06-6.06-5.88,5.24-2.24Z"/>
        <path class="cls-9" d="M679.14,440.4s-16.81,3.51-19.66,16.91c-2.85,13.4-4,29.33-1.52,30.98,2.47,1.65,3.96-.55,4.46,1.18.49,1.73-7.23,2.92-8.32-2.17-1.09-5.08,2.42-24.32,0-31.1-2.42-6.78-5.84-8.99-12.51-11.98-6.66-3,5.9,1.83,15.61-1.05,9.71-2.89,24.48-4.38,21.95-2.77Z"/>
        <path class="cls-9" d="M627.5,445.97s1.14,5.35-6.28,7.24c-7.42,1.89-14.65-2.05-20.74,3.63-6.09,5.68-2.66,17.19-6.28,19.87-3.62,2.68-6.47-7.24-5.33-15.37,1.14-8.12-15.8-17.15-13.13-18.7,2.66-1.56,8.18,11.05,20.74,6.95,12.56-4.1,11.8,2.68,20.93-.47,9.13-3.15,10.24-5.46,10.09-3.15Z"/>
        <path class="cls-9" d="M496.19,430.67s20.55,3.94,28.55,20.18c7.99,16.24,4.57,37.5,3.62,45.32-.95,7.81-.76,12.86-.76,12.86,0,0-4.57-.7-3.05-9.49,1.52-8.79.76-24.97-2.66-41.11-3.43-16.14-18.94-22.64-30.26-26.22-11.32-3.58,4.57-1.53,4.57-1.53Z"/>
        <path class="cls-9" d="M557.85,429.05s-58.99-2.09-55.38,0c3.62,2.09,75.74,3.9,55.38,0Z"/>
        <path class="cls-9" d="M685.08,428.86s-28.46-1.82-55.29-1.14c-26.83.68-28.93,2.95-12.37,2.87,16.56-.08,76.7.49,67.66-1.73Z"/>
        <path class="cls-9" d="M561.47,439.22s-18.94,3.61-22.79,20.6c0,0,7.99-11.85,17.98-15.76,9.99-3.9,4.8-4.85,4.8-4.85Z"/>
        <path class="cls-9" d="M536.39,464.05s-2.71,7.92-3,15.84c-.29,7.92,3.28-6.74,3-15.84Z"/>
      </g>
      <path class="cls-3" d="M656.24,462.39s1.66,15.43,4.19,18.9c2.53,3.47,3.59,8.66.67,9.42-2.92.76-8.86,1.89-8.96-6.83-.1-8.72,4.09-21.48,4.09-21.48Z"/>
      <path class="cls-1" d="M589.76,466.8s-.86,7.99,2.78,8.66c3.64.67,2.12-3.01,2.12-3.01,0,0-4.49,3.05-4.9-5.65Z"/>
      <path class="cls-1" d="M661.85,486.7s-2.12,1.75-3.88-.84c-1.76-2.59-.35-6.85-.35-6.85,0,0,1.61,7.73,4.24,7.69Z"/>
      <path class="cls-1" d="M744.79,475.65s2.17-10.17-2.55-13.04c-4.72-2.87-6.05-4.19-6.05-4.19,0,0,.56,3.43,3.88,5.14,3.32,1.71,4.72,12.08,4.72,12.08Z"/>
      <path class="cls-3" d="M743.32,474.93s2.52,8.37,5.84,15.5c3.32,7.14,2.98,11.16-.4,12.32-3.38,1.16-10.12.49-9.21-11.54.91-12.03,3.76-16.28,3.76-16.28Z"/>
      <path class="cls-1" d="M741.43,492.1s-1.82,5.12.74,7.74c2.55,2.62,4.85,1.9,4.85,1.9,0,0-5.54-4.19-5.58-9.64Z"/>
      <path class="cls-1" d="M654.14,451.72s-2.08-4.61-7.71-6.67c0,0,7.92.77,7.71,6.67Z"/>
      <path class="cls-1" d="M623.63,450.36s-.71,1.89-5.56,2.36c-4.85.47-6.13-1-6.13-1,0,0,9.77.89,11.69-1.36Z"/>
      <path class="cls-5" d="M527.83,475.77s.97,15.85,4.2,21.41c3.23,5.55,3.54,12.26-2.56,12.52-6.1.26-7.07-4.59-6.34-9.54.73-4.95,4.69-24.38,4.69-24.38Z"/>
      <path class="cls-1" d="M525.76,495.97s-2.13,6.82-.49,9.89c1.65,3.08,6.83,2.12,6.83,2.12,0,0-6.95-3.74-6.34-12.02Z"/>
      <path class="cls-3" d="M767.92,431.1s-8.52-1.07-14.48,8c-5.95,9.06-9.49,12.18-15.28,5.96-5.79-6.22-24.45-14.67-38.76-14.99-14.32-.33-4.66-1.09,16.57-2.16,21.23-1.07,64.82-1.33,51.95,3.2Z"/>
      <path class="cls-3" d="M634.89,434.37s-10.16-3.36-24.46,2.15c-14.3,5.51-14.19,8.29-20.76,2.7-6.57-5.59-14.77-8.55-20.24-9.14-5.47-.58,0-2.01,11.9-1.96,11.9.05,16.67,5.38,25.54,5.38,8.88,0,26.25-3.46,28.02.88Z"/>
      <path class="cls-6" d="M550.75,434.37s-10,1.33-12.07,7.22c-2.06,5.89-6.41,5.3-12.04,0-5.63-5.3-11.58-8.1-6.43-8.1,5.15,0,30.54.88,30.54.88Z"/>
      <ellipse class="cls-1" cx="644.45" cy="428.68" rx="27.37" ry=".41"/>
      <ellipse class="cls-1" cx="530.54" cy="429.2" rx="22.41" ry=".53"/>
      <path class="cls-1" d="M711.67,428.74c0,.26,11.15.47,24.91.47,13.76,0,24.91-.21,24.91-.47,0-.26-11.15-.47-24.91-.47s-24.91.21-24.91.47Z"/>
    </g>
  </g>
</svg>